<svg xmlns="http://www.w3.org/2000/svg" xmlns:xlink="http://www.w3.org/1999/xlink" xmlns:lucid="lucid" width="1495.7" height="760"><g transform="translate(-64.29623759737103 -179.07457409865583)" lucid:page-tab-id="U3zEj3zuB9sL"><path d="M84.3 439.07v-240h42.8v240z" stroke="#b2b2b2" stroke-width="2" fill="#4397ff"/><path d="M84.3 439.07h42.8v240H84.3z" stroke="#b2b2b2" stroke-width="2" fill="#3fb8b9"/><path d="M127.1 919.07H84.3v-240h42.8z" stroke="#b2b2b2" stroke-width="2" fill="#008a0e"/><path d="M127.1 199.07H1540v240H127.1zM127.1 439.07H1540v240H127.1zM1540 679.07v240H127.1v-240z" stroke="#b2b2b2" stroke-width="2" fill="none"/><use xlink:href="#a" transform="matrix(-1.8369701987210297e-16,-1,1,-1.8369701987210297e-16,84.29623759737103,439.0745740986559) translate(26.79571559335048 26.13446718044114)"/><use xlink:href="#b" transform="matrix(-1.8369701987210297e-16,-1,1,-1.8369701987210297e-16,84.29623759737103,439.0745740986559) translate(124.50573198098444 26.13446718044114)"/><use xlink:href="#c" transform="matrix(-1.8369701987210297e-16,-1,1,-1.8369701987210297e-16,84.29623759737103,679.0745740986558) translate(8.225663071721726 26.13446718044114)"/><use xlink:href="#d" transform="matrix(-1.8369701987210297e-16,-1,1,-1.8369701987210297e-16,84.29623759737103,679.0745740986558) translate(139.2137285189122 26.13446718044114)"/><use xlink:href="#e" transform="matrix(-1.8369701987210297e-16,-1,1,-1.8369701987210297e-16,84.29623759737103,919.0745740986558) translate(58.3680232601057 26.13446718044114)"/><path d="M559.8 561.03h62.1" stroke="#333" fill="none"/><path d="M559.8 561.53h-.5v-1h.5z" stroke="#333" stroke-width=".05" fill="#333"/><path d="M636.68 561.03l-14.27 4.63v-9.27z" stroke="#333" fill="#333"/><path d="M707.9 505.83a10.67 10.67 0 0 1 12.8 0l67.2 50.4a6 6 0 0 1 0 9.6l-67.2 50.4a10.67 10.67 0 0 1-12.8 0l-67.2-50.4a6 6 0 0 1 0-9.6z" stroke="#000" stroke-opacity="0" stroke-width="2" fill="#3fb8b9"/><use xlink:href="#f" transform="matrix(1,0,0,1,639.8572375973711,506.587730592353) translate(33.96771608219079 47.43610553045738)"/><use xlink:href="#g" transform="matrix(1,0,0,1,639.8572375973711,506.587730592353) translate(31.10693387204194 72.15326382614344)"/><path d="M559.3 625.4c0 8.88-35.82 16.1-80 16.1-44.2 0-80-7.22-80-16.1V496.66c0-8.9 35.8-16.1 80-16.1 44.18 0 80 7.2 80 16.1z" stroke="#000" stroke-opacity="0" stroke-width="2" fill="#3fb8b9"/><path d="M559.3 496.66c0 8.88-35.82 16.1-80 16.1-44.2 0-80-7.22-80-16.1" stroke="#000" stroke-opacity="0" stroke-width="2" fill="none"/><use xlink:href="#h" transform="matrix(1,0,0,1,404.857237597371,518.3101028219498) translate(31.07332604994045 49.68610553045738)"/><use xlink:href="#i" transform="matrix(1,0,0,1,404.857237597371,518.3101028219498) translate(77.87572300797564 49.68610553045738)"/><use xlink:href="#j" transform="matrix(1,0,0,1,404.857237597371,518.3101028219498) translate(14.566612697381583 74.40326382614344)"/><use xlink:href="#k" transform="matrix(1,0,0,1,404.857237597371,518.3101028219498) translate(37.33843909016643 74.40326382614344)"/><path d="M1468 759.07c17.67 0 32 17.9 32 40s-14.33 40-32 40h-96c-17.67 0-32-17.9-32-40s14.33-40 32-40z" stroke="#000" stroke-opacity="0" stroke-width="2" fill="#008a0e"/><use xlink:href="#l" transform="matrix(1,0,0,1,1345.561,764.6355740986559) translate(30.50116960791068 26.654855530457382)"/><use xlink:href="#m" transform="matrix(1,0,0,1,1345.561,764.6355740986559) translate(40.74276992024356 51.372013826143444)"/><path d="M314.3 384.6c0 8.87-31.34 16.06-70 16.06s-70-7.2-70-16.07V256.06c0-8.88 31.34-16.07 70-16.07s70 7.2 70 16.07z" stroke="#000" stroke-opacity="0" stroke-width="2" fill="#4397ff"/><path d="M314.3 256.07c0 8.87-31.34 16.06-70 16.06s-70-7.2-70-16.06" stroke="#000" stroke-opacity="0" stroke-width="2" fill="none"/><use xlink:href="#h" transform="matrix(1,0,0,1,179.85723759737104,277.69260252908293) translate(21.07332604994045 20.186105530457382)"/><use xlink:href="#n" transform="matrix(1,0,0,1,179.85723759737104,277.69260252908293) translate(67.87572300797564 20.186105530457382)"/><path d="M164.3 509.03a8 8 0 0 1 8-8h144a8 8 0 0 1 8 8v112C297.58 601 280.94 601 270.86 601c-16 0-37.28 20.03-53.28 20.03-9.92 0-26.72 0-53.28-20.04z" stroke="#000" stroke-opacity="0" stroke-width="2" fill="#3fb8b9"/><use xlink:href="#o" transform="matrix(1,0,0,1,169.85723759737104,506.587730592353) translate(17.370179263327454 47.99860553045738)"/><use xlink:href="#p" transform="matrix(1,0,0,1,169.85723759737104,506.587730592353) translate(66.5184176336847 47.99860553045738)"/><path d="M1029.3 625.4c0 8.88-35.82 16.1-80 16.1-44.2 0-80-7.22-80-16.1V496.66c0-8.9 35.8-16.1 80-16.1 44.18 0 80 7.2 80 16.1z" stroke="#000" stroke-opacity="0" stroke-width="2" fill="#3fb8b9"/><path d="M1029.3 496.66c0 8.88-35.82 16.1-80 16.1-44.2 0-80-7.22-80-16.1" stroke="#000" stroke-opacity="0" stroke-width="2" fill="none"/><use xlink:href="#q" transform="matrix(1,0,0,1,874.8572375973711,518.3101028219498) translate(13.336476347017577 64.43610553045738)"/><use xlink:href="#n" transform="matrix(1,0,0,1,874.8572375973711,518.3101028219498) translate(95.6125727108985 64.43610553045738)"/><path d="M1177.9 505.83a10.67 10.67 0 0 1 12.8 0l67.2 50.4a6 6 0 0 1 0 9.6l-67.2 50.4a10.67 10.67 0 0 1-12.8 0l-67.2-50.4a6 6 0 0 1 0-9.6z" stroke="#000" stroke-opacity="0" stroke-width="2" fill="#3fb8b9"/><use xlink:href="#r" transform="matrix(1,0,0,1,1109.857237597371,506.587730592353) translate(36.22773402820839 47.43610553045738)"/><use xlink:href="#g" transform="matrix(1,0,0,1,1109.857237597371,506.587730592353) translate(31.10693387204194 72.15326382614344)"/><path d="M324.74 561.03h58.17" stroke="#3a414a" fill="none"/><path d="M324.76 561.53h-.52v-1h.52z" stroke="#3a414a" stroke-width=".05" fill="#3a414a"/><path d="M397.68 561.03l-14.27 4.63v-9.27z" stroke="#3a414a" fill="#3a414a"/><path d="M790.8 561.03h62.1" stroke="#3a414a" fill="none"/><path d="M790.8 561.53h-.55l.05-.5-.05-.5h.56z" stroke="#3a414a" stroke-width=".05" fill="#3a414a"/><path d="M867.68 561.03l-14.27 4.63v-9.27z" stroke="#3a414a" fill="#3a414a"/><path d="M1029.8 561.03h62.1" stroke="#3a414a" fill="none"/><path d="M1029.8 561.53h-.5v-1h.5z" stroke="#3a414a" stroke-width=".05" fill="#3a414a"/><path d="M1106.68 561.03l-14.27 4.63v-9.27z" stroke="#3a414a" fill="#3a414a"/><path d="M1260.8 561.03h33.35a6 6 0 0 1 6 6v226.04a6 6 0 0 0 6 6h17.47" stroke="#3a414a" fill="none"/><path d="M1260.8 561.53h-.55l.05-.5-.05-.5h.56z" stroke="#3a414a" stroke-width=".05" fill="#3a414a"/><path d="M1338.38 799.07l-14.26 4.64v-9.26z" stroke="#3a414a" fill="#3a414a"/><path d="M244.3 401.16v83.53" stroke="#3a414a" fill="none"/><path d="M244.3 400.66l.5-.02v.53h-1v-.53z" stroke="#3a414a" stroke-width=".05" fill="#3a414a"/><path d="M244.3 499.46l-4.64-14.27h9.27z" stroke="#3a414a" fill="#3a414a"/><defs><path fill="#fff" d="M24 0v-248h195v40H76v63h132v40H76v65h150V0H24" id="s"/><path fill="#fff" d="M144 0l-44-69L55 0H2l70-98-66-92h53l41 62 40-62h54l-67 91 71 99h-54" id="t"/><path fill="#fff" d="M115-3C79 11 28 4 28-45v-112H4v-33h27l15-45h31v45h36v33H77v99c-1 23 16 31 38 25v30" id="u"/><path fill="#fff" d="M185-48c-13 30-37 53-82 52C43 2 14-33 14-96s30-98 90-98c62 0 83 45 84 108H66c0 31 8 55 39 56 18 0 30-7 34-22zm-45-69c5-46-57-63-70-21-2 6-4 13-4 21h74" id="v"/><path fill="#fff" d="M135-150c-39-12-60 13-60 57V0H25l-1-190h47c2 13-1 29 3 40 6-28 27-53 61-41v41" id="w"/><path fill="#fff" d="M135-194c87-1 58 113 63 194h-50c-7-57 23-157-34-157-59 0-34 97-39 157H25l-1-190h47c2 12-1 28 3 38 12-26 28-41 61-42" id="x"/><path fill="#fff" d="M133-34C117-15 103 5 69 4 32 3 11-16 11-54c-1-60 55-63 116-61 1-26-3-47-28-47-18 1-26 9-28 27l-52-2c7-38 36-58 82-57s74 22 75 68l1 82c-1 14 12 18 25 15v27c-30 8-71 5-69-32zm-48 3c29 0 43-24 42-57-32 0-66-3-65 30 0 17 8 27 23 27" id="y"/><path fill="#fff" d="M25 0v-261h50V0H25" id="z"/><g id="a"><use transform="matrix(0.06436759972834913,0,0,0.06436759972834913,0,0)" xlink:href="#s"/><use transform="matrix(0.06436759972834913,0,0,0.06436759972834913,15.44822393480379,0)" xlink:href="#t"/><use transform="matrix(0.06436759972834913,0,0,0.06436759972834913,28.321743880473615,0)" xlink:href="#u"/><use transform="matrix(0.06436759972834913,0,0,0.06436759972834913,35.98148824814716,0)" xlink:href="#v"/><use transform="matrix(0.06436759972834913,0,0,0.06436759972834913,48.855008193816985,0)" xlink:href="#w"/><use transform="matrix(0.06436759972834913,0,0,0.06436759972834913,57.866472155785864,0)" xlink:href="#x"/><use transform="matrix(0.06436759972834913,0,0,0.06436759972834913,71.96297649629432,0)" xlink:href="#y"/><use transform="matrix(0.06436759972834913,0,0,0.06436759972834913,84.83649644196414,0)" xlink:href="#z"/></g><path fill="#fff" d="M137-138c1-29-70-34-71-4 15 46 118 7 119 86 1 83-164 76-172 9l43-7c4 19 20 25 44 25 33 8 57-30 24-41C81-84 22-81 20-136c-2-80 154-74 161-7" id="A"/><path fill="#fff" d="M110-194c64 0 96 36 96 99 0 64-35 99-97 99-61 0-95-36-95-99 0-62 34-99 96-99zm-1 164c35 0 45-28 45-65 0-40-10-65-43-65-34 0-45 26-45 65 0 36 10 65 43 65" id="B"/><path fill="#fff" d="M85 4C-2 5 27-109 22-190h50c7 57-23 150 33 157 60-5 35-97 40-157h50l1 190h-47c-2-12 1-28-3-38-12 25-28 42-61 42" id="C"/><path fill="#fff" d="M190-63c-7 42-38 67-86 67-59 0-84-38-90-98-12-110 154-137 174-36l-49 2c-2-19-15-32-35-32-30 0-35 28-38 64-6 74 65 87 74 30" id="D"/><g id="b"><use transform="matrix(0.06436759972834913,0,0,0.06436759972834913,0,0)" xlink:href="#A"/><use transform="matrix(0.06436759972834913,0,0,0.06436759972834913,12.873519945669825,0)" xlink:href="#B"/><use transform="matrix(0.06436759972834913,0,0,0.06436759972834913,26.970024286178287,0)" xlink:href="#C"/><use transform="matrix(0.06436759972834913,0,0,0.06436759972834913,41.06652862668675,0)" xlink:href="#w"/><use transform="matrix(0.06436759972834913,0,0,0.06436759972834913,50.07799258865562,0)" xlink:href="#D"/><use transform="matrix(0.06436759972834913,0,0,0.06436759972834913,62.95151253432545,0)" xlink:href="#v"/><use transform="matrix(0.06436759972834913,0,0,0.06436759972834913,75.82503247999527,0)" xlink:href="#A"/></g><path fill="#fff" d="M240-174c0 40-23 61-54 70L253 0h-59l-57-94H76V0H24v-248c93 4 217-23 216 74zM76-134c48-2 112 12 112-38 0-48-66-32-112-35v73" id="E"/><path fill="#fff" d="M135-194c53 0 70 44 70 98 0 56-19 98-73 100-31 1-45-17-59-34 3 33 2 69 2 105H25l-1-265h48c2 10 0 23 3 31 11-24 29-35 60-35zM114-30c33 0 39-31 40-66 0-38-9-64-40-64-56 0-55 130 0 130" id="F"/><path fill="#fff" d="M25-224v-37h50v37H25zM25 0v-190h50V0H25" id="G"/><g id="c"><use transform="matrix(0.06436759972834913,0,0,0.06436759972834913,0,0)" xlink:href="#E"/><use transform="matrix(0.06436759972834913,0,0,0.06436759972834913,16.671208329642425,0)" xlink:href="#v"/><use transform="matrix(0.06436759972834913,0,0,0.06436759972834913,29.544728275312252,0)" xlink:href="#F"/><use transform="matrix(0.06436759972834913,0,0,0.06436759972834913,43.64123261582071,0)" xlink:href="#z"/><use transform="matrix(0.06436759972834913,0,0,0.06436759972834913,50.07799258865562,0)" xlink:href="#G"/><use transform="matrix(0.06436759972834913,0,0,0.06436759972834913,56.51475256149054,0)" xlink:href="#D"/><use transform="matrix(0.06436759972834913,0,0,0.06436759972834913,69.38827250716037,0)" xlink:href="#y"/><use transform="matrix(0.06436759972834913,0,0,0.06436759972834913,82.26179245283019,0)" xlink:href="#u"/><use transform="matrix(0.06436759972834913,0,0,0.06436759972834913,89.92153682050375,0)" xlink:href="#G"/><use transform="matrix(0.06436759972834913,0,0,0.06436759972834913,96.35829679333864,0)" xlink:href="#B"/><use transform="matrix(0.06436759972834913,0,0,0.06436759972834913,110.45480113384711,0)" xlink:href="#x"/></g><path fill="#fff" d="M147 0L96-86 75-71V0H25v-261h50v150l67-79h53l-66 74L201 0h-54" id="H"/><path fill="#fff" d="M195-6C206 82 75 100 31 46c-4-6-6-13-8-21l49-6c3 16 16 24 34 25 40 0 42-37 40-79-11 22-30 35-61 35-53 0-70-43-70-97 0-56 18-96 73-97 30 0 46 14 59 34l2-30h47zm-90-29c32 0 41-27 41-63 0-35-9-62-40-62-32 0-39 29-40 63 0 36 9 62 39 62" id="I"/><g id="d"><use transform="matrix(0.06436759972834913,0,0,0.06436759972834913,0,0)" xlink:href="#F"/><use transform="matrix(0.06436759972834913,0,0,0.06436759972834913,14.09650434050846,0)" xlink:href="#y"/><use transform="matrix(0.06436759972834913,0,0,0.06436759972834913,26.970024286178287,0)" xlink:href="#D"/><use transform="matrix(0.06436759972834913,0,0,0.06436759972834913,39.843544231848114,0)" xlink:href="#H"/><use transform="matrix(0.06436759972834913,0,0,0.06436759972834913,52.71706417751794,0)" xlink:href="#y"/><use transform="matrix(0.06436759972834913,0,0,0.06436759972834913,65.59058412318777,0)" xlink:href="#I"/><use transform="matrix(0.06436759972834913,0,0,0.06436759972834913,79.68708846369623,0)" xlink:href="#v"/></g><path fill="#fff" d="M230 0l2-204L168 0h-37L68-204 70 0H24v-248h70l56 185 57-185h69V0h-46" id="J"/><g id="e"><use transform="matrix(0.06436759972834913,0,0,0.06436759972834913,0,0)" xlink:href="#J"/><use transform="matrix(0.06436759972834913,0,0,0.06436759972834913,19.24591231877639,0)" xlink:href="#y"/><use transform="matrix(0.06436759972834913,0,0,0.06436759972834913,32.11943226444622,0)" xlink:href="#x"/><use transform="matrix(0.06436759972834913,0,0,0.06436759972834913,46.21593660495468,0)" xlink:href="#C"/><use transform="matrix(0.06436759972834913,0,0,0.06436759972834913,60.31244094546314,0)" xlink:href="#A"/><use transform="matrix(0.06436759972834913,0,0,0.06436759972834913,73.18596089113296,0)" xlink:href="#D"/><use transform="matrix(0.06436759972834913,0,0,0.06436759972834913,86.05948083680279,0)" xlink:href="#w"/><use transform="matrix(0.06436759972834913,0,0,0.06436759972834913,95.07094479877168,0)" xlink:href="#G"/><use transform="matrix(0.06436759972834913,0,0,0.06436759972834913,101.50770477160658,0)" xlink:href="#F"/><use transform="matrix(0.06436759972834913,0,0,0.06436759972834913,115.60420911211504,0)" xlink:href="#u"/></g><path fill="#fff" d="M212-179c-10-28-35-45-73-45-59 0-87 40-87 99 0 60 29 101 89 101 43 0 62-24 78-52l27 14C228-24 195 4 139 4 59 4 22-46 18-125c-6-104 99-153 187-111 19 9 31 26 39 46" id="K"/><path fill="#fff" d="M24 0v-261h32V0H24" id="L"/><path fill="#fff" d="M100-194c63 0 86 42 84 106H49c0 40 14 67 53 68 26 1 43-12 49-29l28 8c-11 28-37 45-77 45C44 4 14-33 15-96c1-61 26-98 85-98zm52 81c6-60-76-77-97-28-3 7-6 17-6 28h103" id="M"/><path fill="#fff" d="M141-36C126-15 110 5 73 4 37 3 15-17 15-53c-1-64 63-63 125-63 3-35-9-54-41-54-24 1-41 7-42 31l-33-3c5-37 33-52 76-52 45 0 72 20 72 64v82c-1 20 7 32 28 27v20c-31 9-61-2-59-35zM48-53c0 20 12 33 32 33 41-3 63-29 60-74-43 2-92-5-92 41" id="N"/><path fill="#fff" d="M117-194c89-4 53 116 60 194h-32v-121c0-31-8-49-39-48C34-167 62-67 57 0H25l-1-190h30c1 10-1 24 2 32 11-22 29-35 61-36" id="O"/><path fill="#fff" d="M24-231v-30h32v30H24zM24 0v-190h32V0H24" id="P"/><path fill="#fff" d="M177-190C167-65 218 103 67 71c-23-6-38-20-44-43l32-5c15 47 100 32 89-28v-30C133-14 115 1 83 1 29 1 15-40 15-95c0-56 16-97 71-98 29-1 48 16 59 35 1-10 0-23 2-32h30zM94-22c36 0 50-32 50-73 0-42-14-75-50-75-39 0-46 34-46 75s6 73 46 73" id="Q"/><g id="f"><use transform="matrix(0.057215644202977006,0,0,0.057215644202977006,0,0)" xlink:href="#K"/><use transform="matrix(0.057215644202977006,0,0,0.057215644202977006,14.818851848571045,0)" xlink:href="#L"/><use transform="matrix(0.057215644202977006,0,0,0.057215644202977006,19.33888774060623,0)" xlink:href="#M"/><use transform="matrix(0.057215644202977006,0,0,0.057215644202977006,30.782016581201628,0)" xlink:href="#N"/><use transform="matrix(0.057215644202977006,0,0,0.057215644202977006,42.22514542179703,0)" xlink:href="#O"/><use transform="matrix(0.057215644202977006,0,0,0.057215644202977006,53.66827426239243,0)" xlink:href="#P"/><use transform="matrix(0.057215644202977006,0,0,0.057215644202977006,58.18831015442761,0)" xlink:href="#O"/><use transform="matrix(0.057215644202977006,0,0,0.057215644202977006,69.63143899502302,0)" xlink:href="#Q"/></g><path fill="#fff" d="M115-194c55 1 70 41 70 98S169 2 115 4C84 4 66-9 55-30l1 105H24l-1-265h31l2 30c10-21 28-34 59-34zm-8 174c40 0 45-34 45-75s-6-73-45-74c-42 0-51 32-51 76 0 43 10 73 51 73" id="R"/><path fill="#fff" d="M114-163C36-179 61-72 57 0H25l-1-190h30c1 12-1 29 2 39 6-27 23-49 58-41v29" id="S"/><path fill="#fff" d="M100-194c62-1 85 37 85 99 1 63-27 99-86 99S16-35 15-95c0-66 28-99 85-99zM99-20c44 1 53-31 53-75 0-43-8-75-51-75s-53 32-53 75 10 74 51 75" id="T"/><path fill="#fff" d="M210-169c-67 3-38 105-44 169h-31v-121c0-29-5-50-35-48C34-165 62-65 56 0H25l-1-190h30c1 10-1 24 2 32 10-44 99-50 107 0 11-21 27-35 58-36 85-2 47 119 55 194h-31v-121c0-29-5-49-35-48" id="U"/><path fill="#fff" d="M135-143c-3-34-86-38-87 0 15 53 115 12 119 90S17 21 10-45l28-5c4 36 97 45 98 0-10-56-113-15-118-90-4-57 82-63 122-42 12 7 21 19 24 35" id="V"/><g id="g"><use transform="matrix(0.057215644202977006,0,0,0.057215644202977006,0,0)" xlink:href="#R"/><use transform="matrix(0.057215644202977006,0,0,0.057215644202977006,11.443128840595401,0)" xlink:href="#S"/><use transform="matrix(0.057215644202977006,0,0,0.057215644202977006,18.251790500749664,0)" xlink:href="#T"/><use transform="matrix(0.057215644202977006,0,0,0.057215644202977006,29.69491934134506,0)" xlink:href="#Q"/><use transform="matrix(0.057215644202977006,0,0,0.057215644202977006,41.13804818194046,0)" xlink:href="#S"/><use transform="matrix(0.057215644202977006,0,0,0.057215644202977006,47.94670984209473,0)" xlink:href="#N"/><use transform="matrix(0.057215644202977006,0,0,0.057215644202977006,59.38983868269012,0)" xlink:href="#U"/><use transform="matrix(0.057215644202977006,0,0,0.057215644202977006,76.49731629938026,0)" xlink:href="#V"/></g><path fill="#fff" d="M233-177c-1 41-23 64-60 70L243 0h-38l-65-103H63V0H30v-248c88 3 205-21 203 71zM63-129c60-2 137 13 137-47 0-61-80-42-137-45v92" id="W"/><path fill="#fff" d="M206 0h-36l-40-164L89 0H53L-1-190h32L70-26l43-164h34l41 164 42-164h31" id="X"/><g id="h"><use transform="matrix(0.057215644202977006,0,0,0.057215644202977006,0,0)" xlink:href="#W"/><use transform="matrix(0.057215644202977006,0,0,0.057215644202977006,14.818851848571045,0)" xlink:href="#N"/><use transform="matrix(0.057215644202977006,0,0,0.057215644202977006,26.261980689166446,0)" xlink:href="#X"/></g><path fill="#fff" d="M85-194c31 0 48 13 60 33l-1-100h32l1 261h-30c-2-10 0-23-3-31C134-8 116 4 85 4 32 4 16-35 15-94c0-66 23-100 70-100zm9 24c-40 0-46 34-46 75 0 40 6 74 45 74 42 0 51-32 51-76 0-42-9-74-50-73" id="Y"/><path fill="#fff" d="M59-47c-2 24 18 29 38 22v24C64 9 27 4 27-40v-127H5v-23h24l9-43h21v43h35v23H59v120" id="Z"/><g id="i"><use transform="matrix(0.057215644202977006,0,0,0.057215644202977006,0,0)" xlink:href="#Y"/><use transform="matrix(0.057215644202977006,0,0,0.057215644202977006,11.443128840595401,0)" xlink:href="#N"/><use transform="matrix(0.057215644202977006,0,0,0.057215644202977006,22.886257681190802,0)" xlink:href="#Z"/><use transform="matrix(0.057215644202977006,0,0,0.057215644202977006,28.6078221014885,0)" xlink:href="#N"/></g><path fill="#fff" d="M87 75C49 33 22-17 22-94c0-76 28-126 65-167h31c-38 41-64 92-64 168S80 34 118 75H87" id="aa"/><path fill="#fff" d="M101-234c-31-9-42 10-38 44h38v23H63V0H32v-167H5v-23h27c-7-52 17-82 69-68v24" id="ab"/><g id="j"><use transform="matrix(0.057215644202977006,0,0,0.057215644202977006,0,0)" xlink:href="#aa"/><use transform="matrix(0.057215644202977006,0,0,0.057215644202977006,6.8086616601542636,0)" xlink:href="#P"/><use transform="matrix(0.057215644202977006,0,0,0.057215644202977006,11.328697552189446,0)" xlink:href="#ab"/></g><path fill="#fff" d="M106-169C34-169 62-67 57 0H25v-261h32l-1 103c12-21 28-36 61-36 89 0 53 116 60 194h-32v-121c2-32-8-49-39-48" id="ac"/><path fill="#fff" d="M115-194c53 0 69 39 70 98 0 66-23 100-70 100C84 3 66-7 56-30L54 0H23l1-261h32v101c10-23 28-34 59-34zm-8 174c40 0 45-34 45-75 0-40-5-75-45-74-42 0-51 32-51 76 0 43 10 73 51 73" id="ad"/><path fill="#fff" d="M33-261c38 41 65 92 65 168S71 34 33 75H2C39 34 66-17 66-93S39-220 2-261h31" id="ae"/><g id="k"><use transform="matrix(0.057215644202977006,0,0,0.057215644202977006,0,0)" xlink:href="#V"/><use transform="matrix(0.057215644202977006,0,0,0.057215644202977006,10.298815956535861,0)" xlink:href="#ac"/><use transform="matrix(0.057215644202977006,0,0,0.057215644202977006,21.74194479713126,0)" xlink:href="#N"/><use transform="matrix(0.057215644202977006,0,0,0.057215644202977006,33.18507363772666,0)" xlink:href="#S"/><use transform="matrix(0.057215644202977006,0,0,0.057215644202977006,39.993735297880924,0)" xlink:href="#M"/><use transform="matrix(0.057215644202977006,0,0,0.057215644202977006,51.436864138476324,0)" xlink:href="#N"/><use transform="matrix(0.057215644202977006,0,0,0.057215644202977006,62.879992979071716,0)" xlink:href="#ad"/><use transform="matrix(0.057215644202977006,0,0,0.057215644202977006,74.32312181966712,0)" xlink:href="#L"/><use transform="matrix(0.057215644202977006,0,0,0.057215644202977006,78.8431577117023,0)" xlink:href="#M"/><use transform="matrix(0.057215644202977006,0,0,0.057215644202977006,90.28628655229771,0)" xlink:href="#ae"/></g><path fill="#fff" d="M96-169c-40 0-48 33-48 73s9 75 48 75c24 0 41-14 43-38l32 2c-6 37-31 61-74 61-59 0-76-41-82-99-10-93 101-131 147-64 4 7 5 14 7 22l-32 3c-4-21-16-35-41-35" id="af"/><g id="l"><use transform="matrix(0.057215644202977006,0,0,0.057215644202977006,0,0)" xlink:href="#W"/><use transform="matrix(0.057215644202977006,0,0,0.057215644202977006,14.818851848571045,0)" xlink:href="#M"/><use transform="matrix(0.057215644202977006,0,0,0.057215644202977006,26.261980689166446,0)" xlink:href="#V"/><use transform="matrix(0.057215644202977006,0,0,0.057215644202977006,36.56079664570231,0)" xlink:href="#M"/><use transform="matrix(0.057215644202977006,0,0,0.057215644202977006,48.00392548629771,0)" xlink:href="#N"/><use transform="matrix(0.057215644202977006,0,0,0.057215644202977006,59.44705432689311,0)" xlink:href="#S"/><use transform="matrix(0.057215644202977006,0,0,0.057215644202977006,66.25571598704737,0)" xlink:href="#af"/><use transform="matrix(0.057215644202977006,0,0,0.057215644202977006,76.55453194358323,0)" xlink:href="#ac"/></g><path fill="#fff" d="M84 4C-5 8 30-112 23-190h32v120c0 31 7 50 39 49 72-2 45-101 50-169h31l1 190h-30c-1-10 1-25-2-33-11 22-28 36-60 37" id="ag"/><g id="m"><use transform="matrix(0.057215644202977006,0,0,0.057215644202977006,0,0)" xlink:href="#T"/><use transform="matrix(0.057215644202977006,0,0,0.057215644202977006,11.443128840595401,0)" xlink:href="#ag"/><use transform="matrix(0.057215644202977006,0,0,0.057215644202977006,22.886257681190802,0)" xlink:href="#Z"/><use transform="matrix(0.057215644202977006,0,0,0.057215644202977006,28.6078221014885,0)" xlink:href="#R"/><use transform="matrix(0.057215644202977006,0,0,0.057215644202977006,40.0509509420839,0)" xlink:href="#ag"/><use transform="matrix(0.057215644202977006,0,0,0.057215644202977006,51.4940797826793,0)" xlink:href="#Z"/><use transform="matrix(0.057215644202977006,0,0,0.057215644202977006,57.215644202977,0)" xlink:href="#V"/></g><g id="n"><use transform="matrix(0.057215644202977006,0,0,0.057215644202977006,0,0)" xlink:href="#Y"/><use transform="matrix(0.057215644202977006,0,0,0.057215644202977006,11.443128840595401,0)" xlink:href="#N"/><use transform="matrix(0.057215644202977006,0,0,0.057215644202977006,22.886257681190802,0)" xlink:href="#Z"/><use transform="matrix(0.057215644202977006,0,0,0.057215644202977006,28.6078221014885,0)" xlink:href="#N"/></g><path fill="#fff" d="M30-248c118-7 216 8 213 122C240-48 200 0 122 0H30v-248zM63-27c89 8 146-16 146-99s-60-101-146-95v194" id="ah"/><g id="o"><use transform="matrix(0.057215644202977006,0,0,0.057215644202977006,0,0)" xlink:href="#ah"/><use transform="matrix(0.057215644202977006,0,0,0.057215644202977006,14.818851848571045,0)" xlink:href="#N"/><use transform="matrix(0.057215644202977006,0,0,0.057215644202977006,26.261980689166446,0)" xlink:href="#Z"/><use transform="matrix(0.057215644202977006,0,0,0.057215644202977006,31.983545109464146,0)" xlink:href="#N"/></g><g id="p"><use transform="matrix(0.057215644202977006,0,0,0.057215644202977006,0,0)" xlink:href="#af"/><use transform="matrix(0.057215644202977006,0,0,0.057215644202977006,10.298815956535861,0)" xlink:href="#P"/><use transform="matrix(0.057215644202977006,0,0,0.057215644202977006,14.818851848571045,0)" xlink:href="#Z"/><use transform="matrix(0.057215644202977006,0,0,0.057215644202977006,20.540416268868746,0)" xlink:href="#N"/><use transform="matrix(0.057215644202977006,0,0,0.057215644202977006,31.983545109464146,0)" xlink:href="#Z"/><use transform="matrix(0.057215644202977006,0,0,0.057215644202977006,37.70510952976185,0)" xlink:href="#P"/><use transform="matrix(0.057215644202977006,0,0,0.057215644202977006,42.22514542179703,0)" xlink:href="#T"/><use transform="matrix(0.057215644202977006,0,0,0.057215644202977006,53.66827426239243,0)" xlink:href="#O"/></g><path fill="#fff" d="M205 0l-28-72H64L36 0H1l101-248h38L239 0h-34zm-38-99l-47-123c-12 45-31 82-46 123h93" id="ai"/><path fill="#fff" d="M179-190L93 31C79 59 56 82 12 73V49c39 6 53-20 64-50L1-190h34L92-34l54-156h33" id="aj"/><g id="q"><use transform="matrix(0.057215644202977006,0,0,0.057215644202977006,0,0)" xlink:href="#ai"/><use transform="matrix(0.057215644202977006,0,0,0.057215644202977006,13.731754608714482,0)" xlink:href="#O"/><use transform="matrix(0.057215644202977006,0,0,0.057215644202977006,25.17488344930988,0)" xlink:href="#N"/><use transform="matrix(0.057215644202977006,0,0,0.057215644202977006,36.61801228990528,0)" xlink:href="#L"/><use transform="matrix(0.057215644202977006,0,0,0.057215644202977006,41.13804818194046,0)" xlink:href="#aj"/><use transform="matrix(0.057215644202977006,0,0,0.057215644202977006,51.436864138476324,0)" xlink:href="#V"/><use transform="matrix(0.057215644202977006,0,0,0.057215644202977006,61.73568009501219,0)" xlink:href="#P"/><use transform="matrix(0.057215644202977006,0,0,0.057215644202977006,66.25571598704737,0)" xlink:href="#V"/></g><g id="r"><use transform="matrix(0.057215644202977006,0,0,0.057215644202977006,0,0)" xlink:href="#ai"/><use transform="matrix(0.057215644202977006,0,0,0.057215644202977006,13.731754608714482,0)" xlink:href="#O"/><use transform="matrix(0.057215644202977006,0,0,0.057215644202977006,25.17488344930988,0)" xlink:href="#N"/><use transform="matrix(0.057215644202977006,0,0,0.057215644202977006,36.61801228990528,0)" xlink:href="#L"/><use transform="matrix(0.057215644202977006,0,0,0.057215644202977006,41.13804818194046,0)" xlink:href="#aj"/><use transform="matrix(0.057215644202977006,0,0,0.057215644202977006,51.436864138476324,0)" xlink:href="#V"/><use transform="matrix(0.057215644202977006,0,0,0.057215644202977006,61.73568009501219,0)" xlink:href="#P"/><use transform="matrix(0.057215644202977006,0,0,0.057215644202977006,66.25571598704737,0)" xlink:href="#V"/></g></defs></g></svg>