<?xml version="1.0" encoding="UTF-8"?><svg id="Layer_1" xmlns="http://www.w3.org/2000/svg" viewBox="0 0 424.28 107.21"><defs><style>.cls-1{fill:#ed1c24;}</style></defs><path class="cls-1" d="M217.84,78.91c.58,0,1.15,.11,1.73,.32,.58,.22,1.13,.59,1.66,1.12l9.65,10.15c-4.22,5.52-9.52,9.68-15.88,12.49-6.36,2.81-13.88,4.21-22.57,4.21-7.97,0-15.11-1.36-21.42-4.07-6.31-2.71-11.66-6.46-16.06-11.23-4.39-4.78-7.76-10.44-10.12-16.99-2.35-6.55-3.53-13.67-3.53-21.35s1.34-15.01,4.03-21.56c2.69-6.55,6.44-12.2,11.27-16.96,4.82-4.75,10.6-8.45,17.32-11.09,6.72-2.64,14.14-3.96,22.25-3.96,3.94,0,7.64,.35,11.12,1.04,3.48,.7,6.73,1.66,9.76,2.88,3.02,1.22,5.81,2.69,8.35,4.39,2.54,1.7,4.8,3.59,6.77,5.65l-8.21,11.02c-.53,.67-1.15,1.28-1.87,1.84-.72,.55-1.73,.83-3.02,.83-.86,0-1.68-.19-2.45-.58-.77-.38-1.58-.85-2.45-1.4-.86-.55-1.81-1.15-2.84-1.8-1.03-.65-2.26-1.25-3.67-1.8-1.42-.55-3.07-1.02-4.97-1.4-1.9-.38-4.12-.58-6.66-.58-4.42,0-8.45,.78-12.1,2.34-3.65,1.56-6.78,3.79-9.4,6.7-2.62,2.9-4.66,6.42-6.12,10.55-1.46,4.13-2.2,8.76-2.2,13.9s.73,10.15,2.2,14.33c1.46,4.18,3.46,7.69,5.98,10.55,2.52,2.86,5.46,5.03,8.82,6.52,3.36,1.49,6.96,2.23,10.8,2.23,2.21,0,4.22-.11,6.05-.32,1.82-.22,3.52-.59,5.08-1.12,1.56-.53,3.05-1.21,4.46-2.05,1.42-.84,2.84-1.88,4.28-3.13,.58-.48,1.2-.88,1.87-1.19,.67-.31,1.37-.47,2.09-.47Z"/><path class="cls-1" d="M416.79,22.46c-.72,1.15-1.47,2.02-2.27,2.59-.79,.58-1.81,.86-3.06,.86-1.11,0-2.29-.35-3.56-1.04-1.27-.69-2.71-1.48-4.32-2.34-1.61-.86-3.44-1.64-5.51-2.34-2.06-.7-4.42-1.04-7.06-1.04-4.56,0-7.96,.97-10.19,2.92-2.23,1.94-3.35,4.57-3.35,7.88,0,2.11,.67,3.86,2.02,5.26,1.34,1.39,3.11,2.59,5.29,3.6,2.18,1.01,4.68,1.93,7.49,2.77,2.81,.84,5.68,1.78,8.6,2.81,2.93,1.03,5.8,2.24,8.6,3.64,2.81,1.39,5.3,3.17,7.49,5.33,2.18,2.16,3.95,4.79,5.29,7.88,1.34,3.1,2.02,6.83,2.02,11.2,0,4.85-.84,9.38-2.52,13.61-1.68,4.22-4.12,7.91-7.31,11.05-3.19,3.14-7.13,5.62-11.81,7.42-4.68,1.8-10,2.7-15.95,2.7-3.26,0-6.59-.34-9.97-1.01-3.38-.67-6.66-1.62-9.83-2.84-3.17-1.22-6.14-2.68-8.93-4.36-2.78-1.68-5.21-3.55-7.27-5.62l7.2-11.38c.53-.86,1.27-1.56,2.23-2.09,.96-.53,1.99-.79,3.1-.79,1.44,0,2.89,.46,4.36,1.37,1.46,.91,3.12,1.92,4.97,3.02,1.85,1.1,3.97,2.11,6.37,3.02,2.4,.91,5.23,1.37,8.5,1.37,4.42,0,7.85-.97,10.3-2.92,2.45-1.94,3.67-5.03,3.67-9.25,0-2.45-.67-4.44-2.02-5.98-1.34-1.54-3.11-2.81-5.29-3.82-2.19-1.01-4.67-1.9-7.45-2.66-2.78-.77-5.64-1.62-8.57-2.56-2.93-.94-5.79-2.09-8.57-3.46-2.78-1.37-5.27-3.17-7.45-5.4-2.19-2.23-3.95-5.02-5.29-8.35-1.34-3.34-2.02-7.45-2.02-12.35,0-3.94,.79-7.78,2.38-11.52s3.91-7.08,6.98-10.01c3.07-2.93,6.84-5.27,11.3-7.02,4.46-1.75,9.58-2.63,15.34-2.63,3.22,0,6.35,.25,9.4,.76,3.05,.5,5.94,1.25,8.68,2.23,2.73,.98,5.29,2.16,7.67,3.53,2.38,1.37,4.5,2.92,6.37,4.64l-6.05,11.3Z"/><path class="cls-1" d="M126.35,33.06c-2.62-6.41-6.3-11.94-11.05-16.6-4.75-4.66-10.48-8.3-17.17-10.94-6.7-2.64-14.12-3.96-22.28-3.96l-15.83,.02c-.39,0-.7,.31-.7,.7V15.66c0,2.55,2.06,4.61,4.61,4.61,4.89,0,11.92,0,11.92,0,4.66,0,8.81,.78,12.46,2.34,3.65,1.56,6.73,3.79,9.25,6.7,2.52,2.9,4.45,6.44,5.8,10.62,1.34,4.18,2.02,8.86,2.02,14.04s-.67,9.94-2.02,14.11c-1.34,4.18-3.28,7.72-5.8,10.62-2.52,2.9-5.6,5.14-9.25,6.7-3.65,1.56-7.8,2.34-12.46,2.34,0,0-7.01,0-11.9,0-2.56,0-4.63,2.07-4.63,4.63v13.52c0,.39,.32,.7,.7,.7l15.82-.12c8.16,0,15.59-1.31,22.28-3.92,6.7-2.62,12.42-6.26,17.17-10.94,4.75-4.68,8.44-10.22,11.05-16.63,2.62-6.41,3.92-13.4,3.92-20.99s-1.31-14.51-3.92-20.92Z"/><path class="cls-1" d="M343.99,105.23h-19.58c-2.11,0-3.84-.48-5.18-1.44-1.34-.96-2.3-2.23-2.88-3.82l-20.3-56.16c-.91-2.45-1.84-5.11-2.77-7.99-.94-2.88-1.81-5.9-2.63-9.07-.67,3.17-1.45,6.19-2.34,9.07-.89,2.88-1.76,5.54-2.63,7.99l-20.16,56.16c-.48,1.34-1.42,2.56-2.81,3.64-1.39,1.08-3.1,1.62-5.11,1.62h-19.73L279.91,.33h22.03l42.05,104.9Z"/></svg>